<svg width="18" height="41" viewBox="0 0 18 41" fill="none" xmlns="http://www.w3.org/2000/svg">
<path fill-rule="evenodd" clip-rule="evenodd" d="M6.3118 5.31657C5.97001 4.61857 5.60534 3.94182 5.22054 3.29406C4.52388 2.11863 3.64308 0.882945 2.90986 0C4.13358 1.6223 5.28496 3.39098 6.22958 5.34225C5.69135 5.50282 5.16756 5.7246 4.6676 6.02344C-0.0684872 8.83877 -1.10384 14.506 2.22292 18.8694C2.91657 19.774 3.71937 20.5475 4.54702 21.2516C5.00251 21.6371 5.46695 22 5.93552 22.3473C5.75 22.6192 5.55803 22.8871 5.3603 23.1482C5.17057 23.3994 4.97663 23.6463 4.78104 23.8892C3.96251 24.9029 3.10312 25.8688 2.32811 26.8904C1.94323 27.4023 1.57073 27.9239 1.25465 28.4765C1.08479 28.7469 0.951305 29.0358 0.803717 29.3181C0.736201 29.4614 0.678316 29.6099 0.615014 29.7559C0.549047 29.9007 0.49151 30.049 0.444808 30.2015C0.21663 30.7987 0.0987976 31.427 0.0351521 32.062C-0.0300415 32.699 -0.00105608 33.3463 0.0932081 33.9825C0.130535 34.3046 0.213101 34.6155 0.282165 34.9321C0.377633 35.2401 0.461835 35.5522 0.587491 35.8511C0.821776 36.4534 1.11825 37.036 1.48954 37.5677C2.21303 38.6443 3.21235 39.544 4.38076 40.1285C6.71802 41.3012 9.58559 41.2854 11.9424 40.1113C13.1215 39.5269 14.1607 38.6259 14.9155 37.546C15.1174 37.2837 15.2733 36.9938 15.4472 36.7138C15.5914 36.419 15.7557 36.1321 15.8721 35.8263C16.1362 35.2245 16.3151 34.5919 16.4452 33.9538C16.6678 32.7775 16.6934 31.5385 16.4277 30.3286C16.1718 29.108 15.6489 27.9695 14.9643 26.9706C14.2837 25.9662 13.4637 25.0945 12.5989 24.3283C11.7336 23.5604 10.8262 22.8764 9.92231 22.2385C9.21223 21.7323 8.50439 21.2572 7.83095 20.7783C7.90922 20.6013 7.98542 20.424 8.05475 20.2457C8.99472 17.8574 9.24543 15.3146 9.04314 12.9203C9.2149 15.1665 8.98242 17.4989 8.19657 19.6969C8.07134 20.0478 7.92651 20.393 7.77186 20.7361C7.60879 20.619 7.44461 20.502 7.28566 20.3833C7.2756 20.3766 7.26554 20.3684 7.25591 20.3602C7.69145 19.3842 8.00735 18.3662 8.20947 17.3375C8.71855 14.7567 8.52692 12.1548 7.95085 9.77735C7.78829 9.10757 7.59031 8.45842 7.36634 7.82547C7.38724 7.82199 7.40745 7.81615 7.42835 7.81267L7.59495 7.77819L7.76361 7.76748L8.0993 7.74162C8.32498 7.735 8.55926 7.75529 8.78907 7.76443C9.2487 7.82991 9.71271 7.91237 10.1594 8.08765C11.0555 8.4141 11.918 8.93908 12.6361 9.64143C13.357 10.3367 13.9525 11.1753 14.3636 12.0819C14.4618 12.2819 14.525 12.5033 14.6171 12.7256C14.6855 12.9543 14.7502 13.1927 14.811 13.4379C14.9005 13.9312 14.9801 14.4694 14.9588 15.0324C14.9412 16.1549 14.6585 17.3547 14.1875 18.4102C13.7299 19.4778 13.0838 20.3797 12.5066 21.0969C11.9255 21.8179 11.383 22.3264 11.1542 22.7665C11.7559 22.4896 12.3356 22.0895 12.8576 21.6334C13.3748 21.1715 13.8244 20.6524 14.2475 20.1704C14.1388 20.3914 14.0138 20.6318 13.8721 20.8759C13.7154 21.1053 13.5658 21.3681 13.3617 21.5831C13.5764 21.4017 13.7724 21.1755 13.9797 20.9693C14.1443 20.7734 14.3061 20.5777 14.4319 20.3781C14.2291 20.7293 14.0261 21.0772 13.9859 21.2591C14.4902 20.7726 14.943 19.8761 15.1341 19.3724C15.1686 19.3028 15.2211 19.1603 15.2752 18.9808C15.3293 18.8001 15.411 18.5935 15.4613 18.3722C15.5875 17.9402 15.672 17.4936 15.7569 17.3109C15.6949 17.8368 15.5846 18.4425 15.399 19.006C15.2315 19.5808 15.0062 20.1156 14.84 20.5601C14.9529 20.4031 15.0644 20.2481 15.1746 20.0927C15.2776 19.9317 15.3737 19.7699 15.4823 19.6156C15.3442 20.0748 14.8406 20.849 14.7745 21.1114C15.3848 20.3347 15.7816 19.5501 16.1947 18.6264C16.5305 17.8758 16.7627 17.1583 16.8401 16.3696C16.8297 16.4875 16.8201 16.6114 16.8104 16.7376C16.7937 16.8628 16.77 16.9909 16.7495 17.122C16.7272 17.2512 16.7054 17.384 16.6833 17.5146C16.6526 17.6456 16.6224 17.7742 16.5933 17.9024C16.5627 18.0305 16.535 18.156 16.5057 18.279C16.4738 18.3988 16.4418 18.516 16.4108 18.6274C16.3576 18.8544 16.3092 19.0572 16.2688 19.2265C16.3961 19.04 16.4857 18.8262 16.574 18.6099C16.6662 18.3973 16.7332 18.1714 16.795 17.9471C16.7947 18.0074 16.8024 18.045 16.8194 18.0642C16.8801 17.8665 17.0049 17.6197 17.0448 17.4055C17.0585 17.4068 17.0751 17.4011 17.0887 17.3976C17.0849 17.3949 17.0805 17.3924 17.0763 17.3909L17.153 17.2332C19.0171 10.8251 13.1635 3.37156 6.3118 5.31657ZM15.2018 35.4065C15.6263 34.4838 15.8871 33.4766 15.9684 32.4412C16.0501 31.4084 15.9631 30.3358 15.6463 29.3119C16.5137 31.6619 16.2407 34.4004 14.9844 36.6077C14.6749 37.1644 14.2846 37.6721 13.8602 38.1462C13.4259 38.6131 12.9264 39.0169 12.3956 39.3663C11.8576 39.7067 11.2764 39.9716 10.679 40.18C10.0771 40.3785 9.45228 40.5004 8.82408 40.5661C7.56407 40.6766 6.27714 40.5101 5.1034 40.045C3.92931 39.5829 2.8826 38.8148 2.10045 37.8253C0.519029 35.8654 -0.110459 33.1261 0.550938 30.7409C0.893247 29.544 1.5021 28.4339 2.24658 27.4013C2.97996 26.3631 3.83531 25.3889 4.65745 24.3692C4.92425 24.0362 5.19001 23.7011 5.44941 23.3556C5.6689 23.0634 5.88409 22.7654 6.08896 22.4592L6.61369 22.8377C6.33468 23.2592 6.04432 23.6623 5.74717 24.0535C5.38215 24.5369 5.00733 25.0009 4.63948 25.4536C3.29922 27.1048 2.01246 28.6707 1.40353 30.4093C1.34178 30.6282 1.24665 30.8447 1.20726 31.0615L1.12968 31.3875L1.07868 31.7195C1.00661 32.1631 0.998263 32.619 1.01641 33.0743C1.07472 33.9849 1.28269 34.9018 1.66069 35.7465C2.04162 36.5866 2.55689 37.3732 3.21296 38.0124C3.86885 38.6473 4.64532 39.1576 5.51597 39.4848C6.38689 39.8106 7.32876 39.982 8.27837 39.9779C9.22617 39.9654 10.1804 39.7899 11.0795 39.4446C11.9744 39.0882 12.8032 38.555 13.5079 37.8635C14.2155 37.1741 14.7786 36.3262 15.2018 35.4065ZM9.60597 24.9458C11.2036 26.1306 12.6432 27.4622 13.4951 29.0465C13.5922 29.2479 13.6961 29.4447 13.7808 29.6493C13.8532 29.8567 13.9543 30.059 14.0032 30.2654L14.0929 30.5735C14.1186 30.6782 14.1346 30.7858 14.1562 30.8906C14.2063 31.0985 14.2208 31.3157 14.2475 31.5295C14.3298 32.3888 14.2091 33.2712 13.9555 34.0971C13.6524 35.0563 13.1419 35.9707 12.4683 36.6996C12.1257 37.058 11.7603 37.3827 11.348 37.6416C10.9327 37.9006 10.4864 38.1153 10.0151 38.2798C9.06524 38.5898 8.02954 38.6983 7.04519 38.5671C6.55254 38.5123 6.0764 38.3852 5.63002 38.2183C5.40142 38.1435 5.1956 38.0316 4.98024 37.9369C4.78259 37.8163 4.5742 37.7145 4.39126 37.5739C4.10606 37.392 3.8237 37.125 3.52783 36.823C3.24951 36.5021 2.96912 36.1309 2.72873 35.7059C2.49359 35.2745 2.2925 34.801 2.14311 34.3005C1.99672 33.8003 1.91898 33.2748 1.89429 32.7604C1.86763 32.2433 1.90676 31.7349 2.01126 31.2653C2.02812 31.1473 2.06037 31.0261 2.09761 30.9057C2.13373 30.7842 2.15885 30.6646 2.19807 30.5461C2.2882 30.3097 2.35366 30.0739 2.46108 29.8459C2.84149 28.933 3.33801 28.0958 3.69589 27.4201C3.12437 28.2503 2.61323 29.0699 2.24348 29.8911C2.14543 30.0968 2.07895 30.3043 1.99062 30.5084C1.93127 30.7173 1.85163 30.9254 1.80364 31.1296C1.75797 31.3328 1.70258 31.5346 1.67987 31.7453C1.63988 31.9509 1.63059 32.1645 1.61468 32.378C1.5666 33.2318 1.70301 34.1153 1.97032 34.9509C2.2569 35.7807 2.67653 36.5666 3.22465 37.2192C1.92241 35.8803 1.17346 33.8646 1.32294 31.9496C1.41041 31.0092 1.69759 30.0633 2.19394 29.1447C2.67936 28.2252 3.32012 27.3287 4.02891 26.4223C4.59725 25.6888 5.2042 24.9504 5.7918 24.1604C5.93457 23.9705 6.07571 23.7768 6.21384 23.58C6.37244 23.3536 6.52957 23.1215 6.68206 22.8865C6.82389 22.9859 6.96606 23.0866 7.10789 23.1845C7.96383 23.7743 8.8055 24.3475 9.60597 24.9458ZM8.33298 13.0247C8.48573 15.4268 8.15546 17.9618 7.11967 20.2569C6.34887 19.6764 5.61472 19.0712 4.95968 18.4251C2.12316 15.6354 1.18326 11.8369 4.86911 8.95902C5.59811 8.40452 6.42972 8.01843 7.27053 7.84576C7.83714 9.48156 8.22074 11.2207 8.33298 13.0247Z" fill="url(#paint0_linear)"/>
<defs>
<linearGradient id="paint0_linear" x1="8.6107" y1="3.84891" x2="8.61078" y2="44.6442" gradientUnits="userSpaceOnUse">
<stop stop-color="#7F43D6"/>
<stop offset="0.6" stop-color="#4844A6"/>
<stop offset="1" stop-color="#114675"/>
</linearGradient>
</defs>
</svg>
